<svg height="70" width="150" xmlns="http://www.w3.org/2000/svg">
  <g fill="#66B445">
    <path d="M59.34 18.397s16.451 7.181 22.907 14.626c.99-.559 2.067-1.52 2.39-3.128.639-3.202.286-12.801-10.097-18.137-10.385-5.333-21.977-4.265-27.525-5.83C41.469 4.365 39.269.807 39.269.807s4.62 36.2 34.137 38.83c4.798-.287 6.373-2.205 6.852-3.779a24.312 24.312 0 0 0-.859-1.111c-6.731-8.177-20.059-16.35-20.059-16.35zM107.381 21.059c-3.088.873-9.537.278-15.321 3.246-5.771 2.972-5.976 8.313-5.624 10.096.17.848.719 1.367 1.247 1.685 3.6-4.09 11.237-6.957 11.237-6.957s-5.689 3.376-9.561 7.822c-.181.208-.352.421-.517.636.216.897 1.04 2.069 3.851 2.237 16.429-1.463 19.008-21.614 19.008-21.614s-1.232 1.978-4.32 2.849z"></path>
  </g>
  <path d="M79.994 37.256l-.048-.687S50.762 42.002 39.881 1.001c0 0 4.207 37.348 33.996 38.632 0 0 3.527.13 6.117-2.377zM83.553 32.508s3.09-16.762-20.106-22.729L49.032 6.661l4.173.504 2.787.262s23.262.809 27.76 14.191c-.001 0 3.01 6.964-.199 10.89zM89.455 38.832l.028-.382 1.31.075s13.555 2.497 20.673-19.472l.323-.404.079-.106-.114.708s-1.246 10.682-10.417 17.965c.001 0-8.594 4.947-11.882 1.616zM87.301 36s-1.724-8.688 10.113-12.344l8.711-2.038-6.943.854s-7.247.723-11.068 5.73c0-.001-2.98 5.139-.813 7.798z" fill="#FFF" opacity=".15"></path>
  <path d="M43.948 42.938l-1.473 6.21c-.077.326-.157.72-.243 1.191-.091.471-.173.936-.25 1.41l-.202 1.325c-.066.408-.106.715-.135.925h-.073c-.006-.238-.038-.56-.087-.973a38.732 38.732 0 0 0-.181-1.277c-.071-.44-.146-.854-.208-1.235a18.14 18.14 0 0 0-.163-.852l-1.468-6.725H35.25l-1.532 6.725c-.024.082-.05.229-.092.431-.038.207-.08.443-.123.713-.046.262-.093.551-.142.854-.041.306-.087.605-.133.897-.038.294-.072.565-.103.822a10.23 10.23 0 0 0-.059.619h-.072c-.033-.242-.08-.572-.14-.987-.06-.412-.122-.85-.191-1.313a92.433 92.433 0 0 0-.23-1.381 21.66 21.66 0 0 0-.23-1.17l-1.421-6.21H26.99l3.772 14.021h4.112l1.128-4.854c.035-.15.077-.354.132-.625.054-.267.112-.565.184-.896.066-.329.134-.683.206-1.058.074-.377.141-.749.204-1.114.162-.871.338-1.803.534-2.799h.07c.201.996.387 1.925.554 2.783.072.367.146.737.215 1.107.074.374.139.726.207 1.052.069.332.129.632.183.895.058.263.099.465.133.605l1.08 4.904h4.164l3.825-14.021h-3.745z" fill="#66B445"></path>
  <path d="M120.331 42.938l-1.468 6.21c-.077.326-.16.72-.246 1.191a30.78 30.78 0 0 0-.246 1.41c-.076.473-.145.909-.207 1.325-.064.408-.106.715-.13.925h-.08c-.006-.238-.035-.56-.086-.973a26.13 26.13 0 0 0-.182-1.277c-.072-.44-.141-.854-.208-1.235-.063-.384-.124-.67-.162-.852l-1.467-6.725h-4.214l-1.525 6.725c-.032.082-.06.229-.096.431-.037.207-.086.443-.128.713-.044.262-.089.551-.142.854-.042.306-.085.605-.128.897-.042.294-.075.565-.106.822-.03.254-.045.465-.054.619h-.075c-.034-.242-.085-.572-.141-.987-.061-.412-.123-.85-.19-1.313l-.225-1.381c-.089-.454-.162-.844-.238-1.17l-1.418-6.21h-3.798l3.771 14.021h4.113l1.132-4.854c.029-.15.077-.354.133-.625.051-.267.116-.565.181-.896.068-.329.133-.683.205-1.058.071-.377.144-.749.208-1.114a167.9 167.9 0 0 1 .529-2.799h.066c.212.996.388 1.925.56 2.783.073.367.15.737.219 1.107.072.374.144.726.207 1.052.064.332.129.632.185.895.051.263.094.465.127.605l1.084 4.904h4.16l3.823-14.021h-3.743z" fill="#0069B3"></path>
  <path d="M56.118 42.795c-.386.08-.745.202-1.09.368a4.176 4.176 0 0 0-.943.641c-.29.26-.536.572-.737.927h-.21l-.518-1.793h-2.918v14.021h3.821v-6.595c0-.744.042-1.405.126-1.984.084-.572.222-1.058.416-1.451.198-.395.464-.689.798-.89.337-.202.758-.302 1.255-.302.67 0 1.159.252 1.464.761.302.5.451 1.26.451 2.274v8.187h3.829v-9.138c0-.907-.104-1.681-.323-2.331-.221-.644-.525-1.174-.927-1.595a3.656 3.656 0 0 0-1.446-.925 5.576 5.576 0 0 0-1.866-.296 6.03 6.03 0 0 0-1.182.121" fill="#66B445"></path>
  <path d="M80.367 42.795a4.77 4.77 0 0 0-1.089.368 4.146 4.146 0 0 0-.938.641c-.283.26-.528.572-.726.927h-.311c-.361-.71-.877-1.227-1.549-1.563-.678-.326-1.492-.494-2.454-.494-.386 0-.766.044-1.143.121a4.33 4.33 0 0 0-1.06.368 3.79 3.79 0 0 0-1.646 1.568h-.215l-.516-1.793h-2.921v14.021h3.828v-6.595c0-.744.039-1.405.118-1.984.089-.572.227-1.058.418-1.451.194-.395.452-.689.77-.89.321-.202.729-.302 1.212-.302.644 0 1.117.252 1.416.761.306.5.454 1.26.454 2.274v8.187h3.828v-7.036c0-1.344.186-2.378.573-3.104.384-.721 1.031-1.082 1.944-1.082.645 0 1.114.252 1.413.761.301.5.454 1.26.454 2.274v8.187h3.844v-9.138c0-1.802-.39-3.106-1.154-3.921-.762-.818-1.896-1.226-3.407-1.226-.38 0-.759.044-1.143.121M101.603 46.823c-.314-.898-.754-1.655-1.32-2.269a5.54 5.54 0 0 0-2.017-1.401c-.778-.32-1.629-.479-2.557-.479-1.005 0-1.905.158-2.695.479a5.307 5.307 0 0 0-2.021 1.401c-.563.613-.985 1.37-1.284 2.269-.295.908-.447 1.939-.447 3.1 0 1.173.16 2.212.478 3.114.322.902.758 1.664 1.322 2.283a5.633 5.633 0 0 0 2.017 1.408c.776.32 1.627.484 2.555.484.998 0 1.895-.164 2.696-.484a5.428 5.428 0 0 0 2.029-1.408c.556-.619.983-1.381 1.276-2.283.303-.902.445-1.941.445-3.114-.001-1.161-.158-2.192-.477-3.1zm-4.011 6.252c-.394.705-1.025 1.063-1.911 1.063-.88 0-1.521-.354-1.916-1.058-.393-.71-.594-1.758-.594-3.158 0-1.396.201-2.44.586-3.128.39-.69 1.022-1.031 1.902-1.031.898 0 1.539.341 1.933 1.031.394.688.589 1.731.589 3.128 0 1.391-.196 2.439-.589 3.153zM137.771 49.047c0-1.02-.141-1.924-.421-2.717-.286-.787-.683-1.458-1.203-1.996a4.997 4.997 0 0 0-1.909-1.239c-.747-.276-1.588-.421-2.513-.421-.951 0-1.82.158-2.603.467a5.26 5.26 0 0 0-2.005 1.383c-.558.614-.993 1.383-1.299 2.299-.311.925-.465 1.999-.465 3.225 0 1.214.173 2.268.508 3.167.337.9.811 1.645 1.423 2.234a5.905 5.905 0 0 0 2.183 1.322c.847.296 1.77.441 2.772.441.518 0 .995-.021 1.432-.057a9.716 9.716 0 0 0 1.216-.181 8.948 8.948 0 0 0 1.071-.312c.34-.12.674-.27 1.008-.444V53.26a14.18 14.18 0 0 1-1.079.484c-.35.135-.701.253-1.066.341a7.054 7.054 0 0 1-1.105.204c-.384.05-.787.076-1.208.076-.515 0-.971-.083-1.369-.244a2.727 2.727 0 0 1-1.008-.683 3.067 3.067 0 0 1-.661-1.091 4.817 4.817 0 0 1-.251-1.447h8.553v-1.853zm-8.476-.692c.069-1.019.326-1.767.771-2.245.442-.476 1.006-.712 1.687-.712.399 0 .756.075 1.048.227.304.15.556.355.754.621.203.264.353.573.456.933.093.361.151.754.162 1.177h-4.878zM147.07 42.844c-.364.117-.69.273-.975.479a3.76 3.76 0 0 0-.786.744 7.32 7.32 0 0 0-.653.98h-.188l-.566-2.109h-2.894v14.021h3.82v-7.133c0-.659.082-1.22.248-1.675.16-.459.388-.825.69-1.105.295-.278.65-.481 1.063-.606a4.728 4.728 0 0 1 1.361-.188c.082 0 .186 0 .31.007.13.004.259.008.387.022.127.014.253.029.369.045.115.019.215.035.273.051v-3.59a1.23 1.23 0 0 0-.219-.039 6.594 6.594 0 0 0-.31-.038c-.114-.011-.232-.023-.354-.026-.12-.003-.231-.008-.337-.008a4.178 4.178 0 0 0-1.239.168" fill="#0069B3"></path>
  <path d="M23.662 43.883c-.936-.821-2.276-1.229-4.02-1.229-.938 0-1.833.108-2.685.334-.85.227-1.632.54-2.333.929l1.243 2.535a10.513 10.513 0 0 1 1.722-.702 5.983 5.983 0 0 1 1.761-.263c.606 0 1.072.138 1.405.409.339.279.502.706.502 1.282v1.054l-2.229.072c-1.9.075-3.324.468-4.283 1.177-.949.706-1.428 1.804-1.428 3.292 0 .757.104 1.419.303 1.973.205.558.481 1.018.833 1.378.359.369.779.638 1.261.816.485.18 1.014.272 1.583.272.534 0 1.003-.047 1.406-.13a4.175 4.175 0 0 0 1.1-.388 3.94 3.94 0 0 0 .905-.671c.271-.271.548-.594.824-.971h.115l.739 1.905h2.67v-9.342c.001-1.67-.465-2.915-1.394-3.732zm-2.405 7.732c0 .451-.063.851-.185 1.199-.129.35-.299.64-.525.884a2.072 2.072 0 0 1-.781.534c-.303.123-.63.184-.982.184-.455 0-.827-.127-1.114-.373-.285-.243-.428-.658-.428-1.248 0-.333.053-.637.145-.904.098-.275.257-.509.467-.704.214-.193.497-.353.845-.471a4.632 4.632 0 0 1 1.294-.201l1.265-.053v1.153zM.805 38.624v18.334h10.554v-3.209H4.692V38.624z" fill="#66B445"></path>
  <path d="M49.849 35.332a1.867 1.867 0 0 0-.703.358 1.666 1.666 0 0 0-.464.662c-.116.268-.171.599-.171.989 0 .376.056.697.171.966.109.264.266.487.464.662.205.175.434.302.703.381a3.057 3.057 0 0 0 1.696 0c.265-.079.498-.206.691-.381.206-.175.363-.398.479-.662.117-.269.171-.59.171-.966 0-.391-.054-.722-.171-.989a1.686 1.686 0 0 0-.479-.662 1.766 1.766 0 0 0-.691-.358 2.96 2.96 0 0 0-.832-.115 3.02 3.02 0 0 0-.864.115M43.978 25.054a3.505 3.505 0 0 0-.976.477 3.998 3.998 0 0 0-.786.744 7.258 7.258 0 0 0-.65.976h-.183l-.565-2.102h-2.89v13.98h3.817v-7.112c0-.663.08-1.217.244-1.671a2.79 2.79 0 0 1 .687-1.1c.295-.279.65-.483 1.063-.606a4.696 4.696 0 0 1 1.355-.188c.082 0 .191 0 .314.006.123.003.252.011.383.026.125.01.253.027.364.039.119.02.21.034.281.054V25a.986.986 0 0 0-.22-.042c-.1-.013-.202-.024-.313-.036-.112-.015-.235-.02-.357-.027-.114-.003-.229-.007-.324-.007a4.258 4.258 0 0 0-1.244.166M28.35 20.848L24.149 34.83h-.073l-3.953-13.982h-5.282v18.281h3.468v-8.497c0-.24-.004-.499-.009-.793a43.834 43.834 0 0 0-.024-.913 90.414 90.414 0 0 1-.036-.966c-.014-.325-.027-.64-.045-.945-.032-.721-.076-1.459-.127-2.229h.115L22.2 39.129h3.564l4.324-14.317h.1c-.024.76-.053 1.487-.086 2.186-.012.302-.02.612-.033.933-.013.313-.017.626-.03.934-.009.31-.016.601-.018.875-.003.276-.007.521-.007.74v8.65h3.613V20.848H28.35z" fill="#464646"></path>
  <g fill="#464646">
    <path d="M8.012 60.335h.814v5.558h2.663v.675H8.012v-6.233zM18.278 65.495c0 .389.019.768.065 1.073h-.73l-.065-.564h-.028c-.25.351-.73.666-1.368.666-.906 0-1.369-.638-1.369-1.285 0-1.082.961-1.674 2.691-1.665v-.092c0-.361-.102-1.036-1.018-1.026-.425 0-.86.12-1.174.333l-.185-.546c.37-.232.916-.389 1.48-.389 1.368 0 1.701.934 1.701 1.822v1.673zm-.786-1.212c-.888-.018-1.896.139-1.896 1.008 0 .536.352.776.758.776.592 0 .971-.37 1.101-.749a.908.908 0 0 0 .037-.259v-.776zM22.367 63.303c0-.472-.009-.841-.037-1.211h.721l.046.74h.019c.222-.416.74-.832 1.48-.832.62 0 1.582.37 1.582 1.905v2.663h-.814v-2.58c0-.721-.268-1.322-1.036-1.322-.527 0-.943.379-1.091.833-.037.102-.056.24-.056.379v2.691h-.814v-3.266zM34.132 60.002v5.41c0 .397.019.851.037 1.156h-.721l-.037-.777h-.028c-.24.5-.776.878-1.507.878-1.082 0-1.923-.915-1.923-2.274-.009-1.489.924-2.395 2.006-2.395.693 0 1.146.324 1.35.675h.019v-2.672h.804zm-.804 3.912c0-.102-.009-.24-.037-.342a1.199 1.199 0 0 0-1.174-.934c-.841 0-1.341.74-1.341 1.72 0 .906.453 1.655 1.322 1.655.545 0 1.045-.37 1.193-.971a1.4 1.4 0 0 0 .037-.351v-.777zM38.157 65.745c.25.148.675.314 1.082.314.583 0 .86-.287.86-.666 0-.388-.231-.592-.823-.814-.814-.296-1.193-.73-1.193-1.267 0-.721.592-1.313 1.544-1.313.453 0 .851.12 1.091.277l-.194.592a1.734 1.734 0 0 0-.916-.268c-.48 0-.74.277-.74.61 0 .37.259.536.842.768.768.287 1.174.675 1.174 1.34 0 .795-.62 1.35-1.665 1.35-.49 0-.943-.129-1.258-.314l.196-.609zM47.896 66.41a3.145 3.145 0 0 1-1.285.259c-1.35 0-2.229-.915-2.229-2.284 0-1.378.943-2.386 2.404-2.386.481 0 .906.12 1.128.24l-.185.62a1.99 1.99 0 0 0-.943-.213c-1.026 0-1.581.768-1.581 1.692 0 1.036.666 1.674 1.554 1.674.462 0 .767-.111.999-.213l.138.611zM54.769 65.495c0 .389.019.768.065 1.073h-.73l-.065-.564h-.028c-.25.351-.73.666-1.368.666-.906 0-1.369-.638-1.369-1.285 0-1.082.961-1.674 2.691-1.665v-.092c0-.361-.102-1.036-1.018-1.026-.425 0-.86.12-1.174.333l-.185-.546c.37-.232.916-.389 1.48-.389 1.368 0 1.701.934 1.701 1.822v1.673zm-.786-1.212c-.888-.018-1.896.139-1.896 1.008 0 .536.352.776.758.776.592 0 .971-.37 1.101-.749a.908.908 0 0 0 .037-.259v-.776zM58.858 63.553c0-.573-.018-1.036-.037-1.461h.721l.046.768h.019c.324-.545.86-.86 1.591-.86 1.091 0 1.905.916 1.905 2.266 0 1.609-.99 2.404-2.043 2.404-.592 0-1.11-.259-1.378-.703h-.019v2.432h-.805v-4.846zm.805 1.193a1.254 1.254 0 0 0 1.258 1.286c.86 0 1.359-.703 1.359-1.729 0-.888-.471-1.655-1.332-1.655a1.28 1.28 0 0 0-1.229.999 1.311 1.311 0 0 0-.056.324v.775zM67.803 60.834c0 .277-.194.499-.518.499-.296 0-.49-.222-.49-.499s.204-.509.509-.509a.49.49 0 0 1 .499.509zm-.906 5.733v-4.476h.814v4.476h-.814zM71.836 63.303c0-.472-.009-.841-.037-1.211h.721l.046.74h.018c.224-.416.741-.832 1.481-.832.62 0 1.582.37 1.582 1.905v2.663h-.814v-2.58c0-.721-.268-1.322-1.036-1.322-.527 0-.943.379-1.091.833-.037.102-.056.24-.056.379v2.691h-.814v-3.266zM83.574 65.911c0 1.036-.213 1.655-.638 2.053-.444.397-1.073.536-1.637.536-.536 0-1.128-.129-1.489-.37l.204-.628c.296.194.758.36 1.313.36.832 0 1.442-.435 1.442-1.572v-.49h-.019c-.24.416-.73.749-1.424.749-1.11 0-1.905-.943-1.905-2.182 0-1.517.989-2.367 2.025-2.367.777 0 1.193.397 1.396.768h.019l.028-.675h.721a14.49 14.49 0 0 0-.037 1.221v2.597zm-.814-2.053a1.06 1.06 0 0 0-.046-.36c-.148-.481-.536-.869-1.137-.869-.777 0-1.332.656-1.332 1.692 0 .878.453 1.609 1.322 1.609.509 0 .962-.314 1.128-.832.046-.139.064-.296.064-.435v-.805zM92.353 65.587a2.73 2.73 0 0 0 1.433.407c.823 0 1.304-.435 1.304-1.063 0-.573-.333-.916-1.174-1.23-1.017-.37-1.646-.906-1.646-1.775 0-.971.805-1.692 2.016-1.692.629 0 1.1.148 1.369.305l-.222.656c-.194-.12-.61-.296-1.174-.296-.851 0-1.174.509-1.174.934 0 .583.379.869 1.239 1.202 1.054.407 1.581.916 1.581 1.831 0 .961-.703 1.803-2.173 1.803-.601 0-1.258-.185-1.591-.407l.212-.675zM100.271 64.478c.019 1.101.712 1.554 1.535 1.554.583 0 .943-.102 1.239-.231l.148.583c-.287.129-.786.287-1.498.287-1.378 0-2.201-.915-2.201-2.265S100.29 62 101.593 62c1.47 0 1.85 1.276 1.85 2.099 0 .167-.009.287-.028.379h-3.144zm2.386-.583c.009-.508-.212-1.313-1.128-1.313-.833 0-1.184.749-1.249 1.313h2.377zM107.227 63.488c0-.527-.009-.98-.037-1.396h.712l.037.888h.027c.204-.601.703-.98 1.249-.98.083 0 .148.009.222.019v.768c-.083-.019-.167-.019-.278-.019-.573 0-.98.425-1.091 1.036-.019.111-.028.25-.028.379v2.386h-.814v-3.081zM113.572 62.092l.878 2.506c.148.416.269.786.361 1.156h.028c.102-.37.231-.74.379-1.156l.869-2.506h.851l-1.757 4.476h-.776l-1.702-4.476h.869zM121.388 60.834c0 .277-.194.499-.518.499-.296 0-.49-.222-.49-.499s.204-.509.509-.509a.49.49 0 0 1 .499.509zm-.906 5.733v-4.476h.814v4.476h-.814zM128.612 66.41a3.14 3.14 0 0 1-1.285.259c-1.35 0-2.229-.915-2.229-2.284 0-1.378.943-2.386 2.404-2.386.481 0 .906.12 1.128.24l-.185.62a1.99 1.99 0 0 0-.943-.213c-1.026 0-1.581.768-1.581 1.692 0 1.036.666 1.674 1.554 1.674.462 0 .767-.111.999-.213l.138.611zM132.738 64.478c.019 1.101.712 1.554 1.535 1.554.583 0 .943-.102 1.239-.231l.148.583c-.287.129-.786.287-1.498.287-1.378 0-2.201-.915-2.201-2.265s.796-2.406 2.1-2.406c1.471 0 1.85 1.276 1.85 2.099 0 .167-.009.287-.028.379h-3.145zm2.386-.583c.009-.508-.212-1.313-1.128-1.313-.832 0-1.184.749-1.249 1.313h2.377zM139.583 65.745c.25.148.675.314 1.082.314.583 0 .86-.287.86-.666 0-.388-.231-.592-.823-.814-.814-.296-1.193-.73-1.193-1.267 0-.721.592-1.313 1.544-1.313.453 0 .851.12 1.091.277l-.194.592a1.734 1.734 0 0 0-.916-.268c-.48 0-.74.277-.74.61 0 .37.259.536.842.768.767.287 1.174.675 1.174 1.34 0 .795-.62 1.35-1.665 1.35-.49 0-.943-.129-1.257-.314l.195-.609z"></path>
  </g>
</svg>
